<svg xmlns="http://www.w3.org/2000/svg" viewBox="0 0 64 64" role="img" aria-label="Lantern 7">
  <defs>
    <linearGradient id="bg" x1="8" y1="4" x2="56" y2="60" gradientUnits="userSpaceOnUse">
      <stop stop-color="#10192f"/>
      <stop offset=".48" stop-color="#070a14"/>
      <stop offset="1" stop-color="#170a24"/>
    </linearGradient>
    <linearGradient id="rim" x1="11" y1="7" x2="55" y2="58" gradientUnits="userSpaceOnUse">
      <stop stop-color="#5df7ff"/>
      <stop offset=".52" stop-color="#8f5cff"/>
      <stop offset="1" stop-color="#ff4fd8"/>
    </linearGradient>
    <linearGradient id="lane" x1="13" y1="43" x2="53" y2="20" gradientUnits="userSpaceOnUse">
      <stop stop-color="#2ef8ff"/>
      <stop offset=".56" stop-color="#f4fbff"/>
      <stop offset="1" stop-color="#ff4bd1"/>
    </linearGradient>
    <radialGradient id="core" cx="0" cy="0" r="1" gradientTransform="matrix(0 14 -14 0 32 31)">
      <stop stop-color="#ffffff"/>
      <stop offset=".28" stop-color="#9effff"/>
      <stop offset=".68" stop-color="#6e62ff"/>
      <stop offset="1" stop-color="#181044"/>
    </radialGradient>
    <filter id="glow" x="-40%" y="-40%" width="180%" height="180%" color-interpolation-filters="sRGB">
      <feGaussianBlur stdDeviation="2.2" result="blur"/>
      <feMerge>
        <feMergeNode in="blur"/>
        <feMergeNode in="SourceGraphic"/>
      </feMerge>
    </filter>
  </defs>
  <rect width="64" height="64" rx="16" fill="url(#bg)"/>
  <path fill="#050712" d="M32 5 55.4 18.5v27L32 59 8.6 45.5v-27L32 5Z"/>
  <path fill="none" stroke="url(#rim)" stroke-width="3.2" d="M32 6.9 53.8 19.5v25L32 57.1 10.2 44.5v-25L32 6.9Z"/>
  <path fill="none" stroke="#26345f" stroke-width="1.2" stroke-linecap="round" d="M18 18.6 46 45.4M46 18.6 18 45.4M12.2 32h39.6"/>
  <path filter="url(#glow)" fill="none" stroke="url(#lane)" stroke-linecap="round" stroke-linejoin="round" stroke-width="5" d="M12.8 43.7c8.6-9.8 15.8-12 23.1-14.3 5.7-1.8 10.8-4.1 15.3-10.2"/>
  <path fill="none" stroke="#effbff" stroke-linecap="round" stroke-linejoin="round" stroke-width="1.6" d="M12.8 43.7c8.6-9.8 15.8-12 23.1-14.3 5.7-1.8 10.8-4.1 15.3-10.2"/>
  <circle cx="32" cy="31" r="12" fill="url(#core)"/>
  <circle cx="32" cy="31" r="8.4" fill="none" stroke="#d8ffff" stroke-width="1.4"/>
  <path filter="url(#glow)" fill="#ffffff" d="m32 18.2 3.3 9.7 10.2 3.1-10.2 3.1-3.3 9.7-3.3-9.7L18.5 31l10.2-3.1L32 18.2Z"/>
  <path fill="#071020" d="M32 23.8 34 29l5.4 2-5.4 2-2 5.2-2-5.2-5.4-2 5.4-2 2-5.2Z"/>
  <g filter="url(#glow)" fill="#7ffcff">
    <circle cx="17.2" cy="41.2" r="3.2"/>
    <circle cx="44.8" cy="22.4" r="3.2"/>
  </g>
  <g fill="#ff57d7">
    <circle cx="25.4" cy="35.8" r="2.3"/>
    <circle cx="38.7" cy="28.2" r="2.3"/>
  </g>
  <path fill="none" stroke="#ffe66d" stroke-linecap="round" stroke-width="2" d="M30.7 9.8h2.6M30.7 54.2h2.6"/>
</svg>
